<svg xmlns="http://www.w3.org/2000/svg" viewBox="0 0 256 256" role="img" aria-labelledby="t"><title id="t">EverLeaf mark</title><defs><linearGradient id="g" x1="0" y1="0" x2="1" y2="1"><stop offset="0" stop-color="#d8e8a7"/><stop offset=".42" stop-color="#5c9c63"/><stop offset="1" stop-color="#123f31"/></linearGradient><linearGradient id="a" x1="0" y1="0" x2="0" y2="1"><stop offset="0" stop-color="#fff0ad"/><stop offset=".5" stop-color="#d7b55a"/><stop offset="1" stop-color="#9d7627"/></linearGradient><filter id="s"><feDropShadow dx="0" dy="5" stdDeviation="5" flood-color="#001b15" flood-opacity=".7"/></filter></defs><g filter="url(#s)"><circle cx="128" cy="128" r="104" fill="#082a22" stroke="url(#a)" stroke-width="6"/><ellipse cx="128" cy="128" rx="87" ry="75" fill="none" stroke="url(#a)" stroke-width="5" transform="rotate(-18 128 128)" opacity=".82"/><path d="M128 31c19 30 22 50 11 70 19-8 39-7 58 6-7 27-24 43-52 50 16 11 25 28 26 51-27 2-48-8-63-27-7 17-23 30-45 38-15-24-13-47 3-67-22-3-39-14-53-34 21-20 44-25 70-15-3-23 12-47 45-72z" fill="url(#g)" stroke="#0c382b" stroke-width="7" stroke-linejoin="round"/><path d="M126 49c9 27 9 50 0 70m-1-18c-14-20-31-31-51-35m50 58c25-14 45-16 62-6m-63 8c-16 22-27 45-30 70m34-69c16 15 25 33 27 54" fill="none" stroke="#e2e8aa" stroke-width="4" stroke-linecap="round" opacity=".72"/><path d="M96 142l11-27 11 27 27 11-27 11-11 27-11-27-27-11z" fill="url(#a)" stroke="#fff1b1" stroke-width="2"/><path d="M75 129l10-27 8 20 9-31 11 31 10-17 9 24z" fill="#0e382d"/><circle cx="188" cy="67" r="6" fill="#ffe68d"/><path d="M188 50v34M171 67h34" stroke="#fff2aa" stroke-width="3" stroke-linecap="round"/></g></svg>